# xmcd
#
# Track frame offsets:
#	150
#	16286
#	35040
#	58948
#	75057
#	88413
#	106836
#	130092
#	148626
#	165231
#	179308
#
# Disc length: 2931 seconds
#
# Revision: 0
# Processed by: cddbd v1.4PL0 Copyright (c) Steve Scherf et al.
# Submitted via: dBpowerAMP V4.0
#
DISCID=850b710b
DTITLE=Will Young - Friday's Child
DYEAR=2003
DGENRE=Country
TTITLE0=Love the One You're With
TTITLE1=Your Game
TTITLE2=Stronger
TTITLE3=Leave Right Now
TTITLE4=Love Is A Matter Of Distance
TTITLE5=Dance The Night Away
TTITLE6=Very Kind
TTITLE7=Free
TTITLE8=Going My Way
TTITLE9=Out Of My Mind
TTITLE10=Friday's Child
EXTD=
EXTT0=
EXTT1=
EXTT2=
EXTT3=
EXTT4=
EXTT5=
EXTT6=
EXTT7=
EXTT8=
EXTT9=
EXTT10=
PLAYORDER=
